<svg xmlns="http://www.w3.org/2000/svg" viewBox="0 0 276.1 318.83"><defs><style>.cls-1{fill:#3f8e35;}.cls-2{fill:#5aba47;}.cls-3{fill:#85c441;}.cls-4{fill:#20621f;}.cls-5{fill:#fff;}</style></defs><title>Asset 1woudrijk</title><g id="Layer_2" data-name="Layer 2"><g id="Layer_1-2" data-name="Layer 1"><polygon class="cls-1" points="138.06 0 207.08 39.85 276.11 79.7 207.08 119.56 138.06 159.41 138.06 79.7 138.06 0"/><polygon class="cls-1" points="138.06 159.41 207.08 199.27 276.11 239.12 207.08 278.97 138.06 318.83 138.06 239.12 138.06 159.41"/><polygon class="cls-2" points="138.06 0 69.02 39.85 0 79.7 69.02 119.56 138.06 159.41 138.06 79.7 138.06 0"/><polygon class="cls-2" points="276.11 79.7 207.08 119.56 138.06 159.41 207.08 199.27 276.11 239.12 276.11 159.41 276.11 79.7"/><polygon class="cls-2" points="138.06 159.41 69.02 199.27 0 239.12 69.02 278.97 138.06 318.83 138.06 239.12 138.06 159.41"/><polygon class="cls-1" points="0 79.7 69.02 119.56 138.06 159.41 69.02 199.27 0 239.12 0 159.41 0 79.7"/><polygon class="cls-3" points="207.08 39.85 276.11 79.7 207.08 119.56 138.06 159.41 207.08 39.85"/><polygon class="cls-3" points="138.06 159.41 207.08 278.97 138.06 318.83 138.06 239.12 138.06 159.41"/><polygon class="cls-4" points="138.06 0 69.02 39.85 138.06 159.41 138.06 79.7 138.06 0"/><polygon class="cls-4" points="138.06 159.41 207.08 199.27 276.11 239.12 276.11 159.41 138.06 159.41"/><polygon class="cls-4" points="138.06 159.41 69.02 199.27 0 239.12 69.02 278.97 138.06 159.41"/><polygon class="cls-3" points="0 79.7 69.02 119.56 138.06 159.41 0 159.41 0 79.7"/><polygon class="cls-5" points="138.06 113.08 184.4 79.16 178.18 136.24 230.73 159.41 178.18 182.58 184.4 239.67 138.06 205.74 91.72 239.67 97.93 182.58 45.39 159.41 97.93 136.24 91.72 79.16 138.06 113.08"/><polygon class="cls-5" points="138.06 113.08 184.4 79.16 178.18 136.24 230.73 159.41 178.18 182.58 184.4 239.67 138.06 205.74 91.72 239.67 97.93 182.58 45.39 159.41 97.93 136.24 91.72 79.16 138.06 113.08"/></g></g></svg>